<svg xmlns="http://www.w3.org/2000/svg" viewBox="0 0 48 48">
  <g id="part:torso">
    <rect x="17" y="20" width="14" height="16" rx="5" fill="#e04b3a" />
  </g>
  <g id="part:head">
    <circle cx="24" cy="14" r="7" fill="#f6d44d" />
    <circle cx="21" cy="13" r="1.6" fill="#2b2b2b" />
    <circle cx="27" cy="13" r="1.6" fill="#2b2b2b" />
    <path d="M20 17c2 2 6 2 8 0" stroke="#2b2b2b" stroke-width="1.4" fill="none" />
  </g>
  <g id="part:arm.l.upper">
    <rect x="11" y="22" width="6" height="8" rx="3" fill="#e04b3a" />
  </g>
  <g id="part:arm.l.lower">
    <rect x="9" y="30" width="6" height="8" rx="3" fill="#e04b3a" />
  </g>
  <g id="part:hand.l">
    <circle cx="12" cy="39" r="2.5" fill="#f6d44d" />
  </g>
  <g id="part:arm.r.upper">
    <rect x="31" y="22" width="6" height="8" rx="3" fill="#e04b3a" />
  </g>
  <g id="part:arm.r.lower">
    <rect x="33" y="30" width="6" height="8" rx="3" fill="#e04b3a" />
  </g>
  <g id="part:hand.r">
    <circle cx="36" cy="39" r="2.5" fill="#f6d44d" />
  </g>
  <g id="part:leg.l.upper">
    <rect x="19" y="36" width="5" height="7" rx="2.5" fill="#7b4a6d" />
  </g>
  <g id="part:leg.l.lower">
    <rect x="19" y="42" width="5" height="6" rx="2.5" fill="#7b4a6d" />
  </g>
  <g id="part:foot.l">
    <rect x="17.5" y="46" width="8" height="3" rx="1.5" fill="#2b2b2b" />
  </g>
  <g id="part:leg.r.upper">
    <rect x="24" y="36" width="5" height="7" rx="2.5" fill="#7b4a6d" />
  </g>
  <g id="part:leg.r.lower">
    <rect x="24" y="42" width="5" height="6" rx="2.5" fill="#7b4a6d" />
  </g>
  <g id="part:foot.r">
    <rect x="22.5" y="46" width="8" height="3" rx="1.5" fill="#2b2b2b" />
  </g>
</svg>
